<svg width="1041" height="386" viewBox="0 0 1041 386" fill="none" xmlns="http://www.w3.org/2000/svg">
<path d="M389.575 244.348C383.135 249.58 376.494 253.404 369.652 255.819C362.944 258.234 355.43 259.442 347.112 259.442C339.197 259.442 331.75 258.033 324.774 255.215C317.932 252.398 311.961 248.574 306.863 243.744C301.899 238.914 297.941 233.212 294.989 226.638C292.172 219.93 290.763 212.752 290.763 205.105C290.763 197.592 292.105 190.548 294.788 183.974C297.606 177.266 301.429 171.497 306.259 166.667C311.089 161.703 316.791 157.812 323.365 154.995C330.073 152.177 337.184 150.769 344.697 150.769C352.076 150.769 358.919 152.244 365.224 155.196C371.664 158.013 377.165 161.904 381.727 166.868C386.422 171.832 390.045 177.803 392.594 184.779C395.277 191.622 396.619 199.068 396.619 207.118V214.362H318.535C320.414 220.936 324.036 226.236 329.403 230.261C334.769 234.286 341.075 236.298 348.32 236.298C352.881 236.298 357.175 235.56 361.199 234.085C365.224 232.609 368.646 230.529 371.463 227.846L389.575 244.348ZM344.094 173.509C337.788 173.509 332.354 175.455 327.793 179.346C323.231 183.102 320.078 188.2 318.334 194.64H369.652C367.908 188.469 364.688 183.438 359.992 179.547C355.43 175.522 350.131 173.509 344.094 173.509Z" fill="#454545"/>
<path d="M409.486 257.429V152.58H437.057V160.831C441.082 157.477 445.509 154.928 450.339 153.184C455.303 151.439 460.67 150.567 466.439 150.567C478.513 150.567 488.441 154.458 496.223 162.24C504.005 170.021 507.895 180.016 507.895 192.225V257.429H480.325V196.25C480.325 189.676 478.312 184.377 474.287 180.352C470.396 176.327 465.164 174.314 458.59 174.314C454.028 174.314 449.869 175.254 446.113 177.132C442.49 178.876 439.472 181.425 437.057 184.779V257.429H409.486Z" fill="#454545"/>
<path d="M389.575 244.348C383.135 249.58 376.494 253.404 369.652 255.819C362.943 258.234 355.43 259.441 347.112 259.441C339.196 259.441 331.75 258.033 324.774 255.215C317.931 252.398 311.961 248.574 306.863 243.744C301.899 238.914 297.941 233.212 294.989 226.638C292.172 219.93 290.763 212.752 290.763 205.105C290.763 197.592 292.105 190.548 294.788 183.974C297.606 177.266 301.429 171.497 306.259 166.667C311.089 161.703 316.791 157.812 323.365 154.995C330.073 152.177 337.184 150.769 344.697 150.769C352.076 150.769 358.919 152.244 365.224 155.196C371.664 158.013 377.165 161.904 381.726 166.868C386.422 171.832 390.045 177.803 392.594 184.779C395.277 191.622 396.619 199.068 396.619 207.117V214.362H318.535C320.413 220.936 324.036 226.236 329.402 230.261C334.769 234.286 341.075 236.298 348.32 236.298C352.881 236.298 357.174 235.56 361.199 234.084C365.224 232.609 368.645 230.529 371.463 227.846L389.575 244.348ZM344.093 173.509C337.788 173.509 332.354 175.455 327.792 179.346C323.231 183.102 320.078 188.2 318.334 194.64H369.652C367.908 188.469 364.688 183.438 359.992 179.547C355.43 175.522 350.131 173.509 344.093 173.509Z" fill="#62C812"/>
<path d="M11.75 359.604C11.75 167.333 167.333 11.7498 359.604 11.7498H358.785C477.314 11.7498 573.227 107.662 573.227 226.191C573.227 299.933 513.556 359.604 439.815 359.604H440.633C395.393 359.604 358.785 322.995 358.785 277.756C358.785 249.254 381.848 226.191 410.349 226.191H409.531C426.722 226.191 440.633 240.102 440.633 257.294C440.633 268.603 431.481 277.756 420.171 277.756C414.742 277.756 410.349 272.997 410.349 267.115" stroke="#62C812" stroke-width="23.5" stroke-miterlimit="10" stroke-linecap="round" stroke-linejoin="round"/>
<path d="M198.476 235.291C203.172 235.291 207.532 234.352 211.557 232.473C215.716 230.595 219.674 227.643 223.43 223.618L239.933 240.724C234.566 246.628 228.126 251.256 220.613 254.61C213.1 257.83 205.318 259.44 197.268 259.44C189.621 259.44 182.376 258.032 175.534 255.214C168.826 252.397 162.99 248.573 158.025 243.743C153.196 238.913 149.372 233.211 146.554 226.637C143.737 219.929 142.328 212.751 142.328 205.104C142.328 197.457 143.737 190.346 146.554 183.772C149.372 177.064 153.196 171.295 158.025 166.465C162.99 161.501 168.826 157.61 175.534 154.792C182.376 151.975 189.621 150.566 197.268 150.566C205.587 150.566 213.569 152.243 221.217 155.597C228.864 158.817 235.371 163.379 240.738 169.282L223.833 187.193C220.076 183.034 216.051 179.881 211.758 177.734C207.465 175.588 202.836 174.514 197.872 174.514C189.957 174.514 183.248 177.466 177.748 183.369C172.381 189.272 169.698 196.517 169.698 205.104C169.698 213.69 172.448 220.868 177.949 226.637C183.584 232.406 190.426 235.291 198.476 235.291Z" fill="#454545"/>
<path d="M277.812 152.579V257.428H250.242V152.579H277.812Z" fill="#454545"/>
<path d="M534.868 227.845V175.722H513.335V152.579H534.868V125.813L562.439 119.574V152.579H592.223V175.722H562.439V222.21C562.439 227.174 563.512 230.662 565.659 232.675C567.806 234.687 571.562 235.693 576.929 235.693C579.478 235.693 581.893 235.559 584.174 235.291C586.454 234.888 588.936 234.217 591.62 233.278V255.818C588.668 256.757 585.113 257.495 580.954 258.032C576.795 258.702 573.239 259.038 570.288 259.038C558.615 259.038 549.76 256.422 543.723 251.189C537.82 245.823 534.868 238.041 534.868 227.845Z" fill="#454545"/>
<path d="M629.419 152.579V257.428H601.849V152.579H629.419ZM619.558 108.908H650.953L623.784 135.07H601.446L619.558 108.908Z" fill="#454545"/>
<path d="M755.094 152.578V257.427H727.523V152.578H755.094Z" fill="#454545"/>
<path d="M657.015 151.774H663.757V142.058C663.757 130.339 667.178 121.314 674.02 114.984C680.863 108.653 690.724 105.487 703.604 105.487C706.421 105.487 709.306 105.689 712.257 106.093C715.209 106.363 717.758 106.767 719.905 107.306V130.541C717.355 130.003 715.075 129.598 713.062 129.329C711.184 129.06 709.171 128.925 707.025 128.925C701.792 128.925 697.835 130.07 695.151 132.36C692.602 134.65 691.328 138.085 691.328 142.664V152.161H719.905V175.396H691.328V257.428H663.757V175.396H639.406V165.358L657.015 151.774Z" fill="#454545"/>
<path d="M731.091 135.674C729.876 135.674 728.881 135.322 728.108 134.618C727.334 133.914 726.948 133.008 726.948 131.901V111.273C726.948 110.167 727.334 109.261 728.108 108.557C728.881 107.852 729.876 107.5 731.091 107.5H750.979C752.194 107.5 753.189 107.852 753.962 108.557C754.736 109.261 755.122 110.167 755.122 111.273V131.901C755.122 133.008 754.736 133.914 753.962 134.618C753.189 135.322 752.194 135.674 750.979 135.674H731.091Z" fill="#62C812"/>
<path d="M254.138 135.674C252.922 135.674 251.928 135.322 251.155 134.618C250.381 133.914 249.994 133.008 249.994 131.901V111.273C249.994 110.167 250.381 109.261 251.155 108.557C251.928 107.852 252.922 107.5 254.138 107.5H274.026C275.241 107.5 276.235 107.852 277.009 108.557C277.782 109.261 278.169 110.167 278.169 111.273V131.901C278.169 133.008 277.782 133.914 277.009 134.618C276.235 135.322 275.241 135.674 274.026 135.674H254.138Z" fill="#454545"/>
<path d="M806.394 82.2512C806.394 81.0979 806.772 80.1542 807.526 79.4203C808.281 78.6863 809.251 78.3193 810.437 78.3193L820.463 78.3193C821.649 78.3193 822.62 78.6863 823.374 79.4203C824.129 80.1542 824.506 81.0979 824.506 82.2512L824.506 105.581C824.506 106.734 824.129 107.678 823.374 108.412C822.62 109.146 821.649 109.512 820.463 109.512L810.437 109.512C809.251 109.512 808.281 109.146 807.526 108.412C806.772 107.678 806.394 106.734 806.394 105.581L806.394 82.2512Z" fill="#62C812"/>
<path d="M784.585 220.198C783.296 220.198 782.136 219.76 781.105 218.885C780.203 217.884 779.752 216.758 779.752 215.508V191.682C779.752 190.306 780.203 189.181 781.105 188.305C782.136 187.43 783.296 186.992 784.585 186.992H809.132C810.549 186.992 811.709 187.43 812.611 188.305C813.513 189.181 813.964 190.306 813.964 191.682V215.508C813.964 216.758 813.513 217.884 812.611 218.885C811.709 219.76 810.549 220.198 809.132 220.198H784.585Z" fill="#62C812"/>
<path d="M883.437 196.048C888.133 196.048 892.493 195.109 896.518 193.23C900.677 191.352 904.635 188.4 908.392 184.376L924.894 201.482C919.527 207.385 913.087 212.013 905.574 215.367C898.061 218.587 890.279 220.197 882.23 220.197C874.582 220.197 867.337 218.789 860.495 215.971C853.787 213.154 847.951 209.33 842.987 204.5C838.157 199.67 834.333 193.968 831.515 187.394C828.698 180.686 827.289 173.508 827.289 165.861C827.289 158.214 828.698 151.103 831.515 144.529C834.333 137.821 838.157 132.052 842.987 127.222C847.951 122.258 853.787 118.367 860.495 115.549C867.337 112.732 874.582 111.323 882.23 111.323C890.548 111.323 898.53 113 906.178 116.354C913.825 119.574 920.332 124.136 925.699 130.039L908.794 147.95C905.037 143.791 901.012 140.638 896.719 138.491C892.426 136.345 887.797 135.272 882.833 135.272C874.918 135.272 868.209 138.223 862.709 144.126C857.342 150.03 854.659 157.274 854.659 165.861C854.659 174.447 857.409 181.625 862.91 187.394C868.545 193.163 875.387 196.048 883.437 196.048Z" fill="#62C812"/>
<path d="M1013.58 218.185V209.531C1009.42 212.885 1004.79 215.435 999.696 217.179C994.598 218.789 989.298 219.594 983.797 219.594C976.418 219.594 969.442 218.185 962.868 215.367C956.428 212.55 950.793 208.726 945.963 203.896C941.133 199.067 937.31 193.365 934.492 186.791C931.809 180.216 930.467 173.173 930.467 165.66C930.467 158.147 931.876 151.103 934.693 144.529C937.511 137.955 941.335 132.253 946.164 127.423C950.994 122.593 956.696 118.836 963.27 116.153C969.979 113.336 977.089 111.927 984.602 111.927C989.701 111.927 994.665 112.665 999.495 114.141C1004.46 115.482 1009.02 117.495 1013.18 120.178V113.336H1040.75V218.185H1013.58ZM957.635 165.66C957.635 174.112 960.587 181.29 966.49 187.193C972.394 193.096 979.638 196.048 988.225 196.048C993.323 196.048 997.952 195.176 1002.11 193.432C1006.4 191.688 1010.09 189.205 1013.18 185.986V145.133C1010.23 142.047 1006.54 139.632 1002.11 137.888C997.818 136.144 993.189 135.272 988.225 135.272C979.504 135.272 972.192 138.223 966.289 144.126C960.52 149.895 957.635 157.073 957.635 165.66Z" fill="#62C812"/>
<path d="M784.022 289.398C785.336 289.398 786.488 289.173 787.478 288.723C788.468 288.255 789.305 287.598 789.989 286.752V288.75H793.904V248.25H789.989V261.426C789.305 260.598 788.468 259.95 787.478 259.482C786.488 259.014 785.336 258.78 784.022 258.78C781.61 258.78 779.585 259.581 777.947 261.183C776.309 262.785 775.49 265.107 775.49 268.149V280.002C775.49 283.044 776.309 285.375 777.947 286.995C779.585 288.597 781.61 289.398 784.022 289.398ZM784.751 285.483C783.077 285.483 781.763 284.979 780.809 283.971C779.873 282.963 779.405 281.64 779.405 280.002V268.149C779.405 266.511 779.873 265.197 780.809 264.207C781.763 263.199 783.068 262.695 784.724 262.695C786.38 262.695 787.667 263.199 788.585 264.207C789.521 265.197 789.989 266.511 789.989 268.149V280.029C789.989 281.667 789.53 282.99 788.612 283.998C787.694 284.988 786.407 285.483 784.751 285.483ZM801.584 256.188H805.499V249.87H801.584V256.188ZM801.584 288.75H805.499V259.455H801.584V288.75ZM818.289 288.75H823.041L831.33 259.455H827.145L820.638 282.864L814.104 259.455H809.919L818.289 288.75ZM843.559 289.398C846.133 289.398 848.14 288.498 849.58 286.698V288.75H853.495V259.455H849.58V280.029C849.58 281.667 849.112 282.99 848.176 283.998C847.24 284.988 845.989 285.483 844.423 285.483C842.893 285.483 841.66 284.988 840.724 283.998C839.788 282.99 839.32 281.667 839.32 280.029V259.455H835.405V280.029C835.405 283.125 836.179 285.465 837.727 287.049C839.293 288.615 841.237 289.398 843.559 289.398ZM861.174 288.75H865.089V248.25H861.174V288.75ZM880.632 298.632C883.368 298.632 885.6 297.75 887.328 295.986C889.056 294.24 889.92 291.945 889.92 289.101V259.455H886.005V261.399C885.321 260.571 884.484 259.932 883.494 259.482C882.504 259.014 881.361 258.78 880.065 258.78C877.653 258.78 875.619 259.581 873.963 261.183C872.325 262.785 871.506 265.107 871.506 268.149V276.222C871.506 279.264 872.325 281.595 873.963 283.215C875.619 284.817 877.653 285.618 880.065 285.618C881.361 285.618 882.504 285.393 883.494 284.943C884.484 284.493 885.321 283.845 886.005 282.999V289.209C886.005 290.847 885.519 292.17 884.547 293.178C883.575 294.204 882.27 294.717 880.632 294.717C878.994 294.717 877.698 294.204 876.744 293.178C875.808 292.17 875.34 290.847 875.34 289.209V288.372H871.425V289.074C871.425 291.936 872.271 294.24 873.963 295.986C875.673 297.75 877.896 298.632 880.632 298.632ZM880.767 281.703C879.093 281.703 877.779 281.199 876.825 280.191C875.889 279.183 875.421 277.86 875.421 276.222V268.149C875.421 266.511 875.889 265.197 876.825 264.207C877.779 263.199 879.093 262.695 880.767 262.695C882.423 262.695 883.71 263.199 884.628 264.207C885.546 265.197 886.005 266.511 886.005 268.149V276.249C886.005 277.887 885.546 279.21 884.628 280.218C883.71 281.208 882.423 281.703 880.767 281.703ZM905.416 289.398C906.73 289.398 907.882 289.173 908.872 288.723C909.862 288.255 910.699 287.598 911.383 286.752V288.75H915.298V259.455H911.383V261.426C910.699 260.598 909.862 259.95 908.872 259.482C907.882 259.014 906.73 258.78 905.416 258.78C903.004 258.78 900.979 259.581 899.341 261.183C897.703 262.785 896.884 265.107 896.884 268.149V280.002C896.884 283.044 897.703 285.375 899.341 286.995C900.979 288.597 903.004 289.398 905.416 289.398ZM906.145 285.483C904.471 285.483 903.157 284.979 902.203 283.971C901.267 282.963 900.799 281.64 900.799 280.002V268.149C900.799 266.511 901.267 265.197 902.203 264.207C903.157 263.199 904.462 262.695 906.118 262.695C907.774 262.695 909.061 263.199 909.979 264.207C910.915 265.197 911.383 266.511 911.383 268.149V280.029C911.383 281.667 910.924 282.99 910.006 283.998C909.088 284.988 907.801 285.483 906.145 285.483ZM931.403 289.398C934.157 289.398 936.38 288.525 938.072 286.779C939.764 285.015 940.61 282.711 940.61 279.867V279.327H936.695V280.002C936.695 281.64 936.218 282.963 935.264 283.971C934.328 284.979 933.041 285.483 931.403 285.483C929.765 285.483 928.46 284.979 927.488 283.971C926.516 282.963 926.03 281.64 926.03 280.002V268.149C926.03 266.511 926.516 265.197 927.488 264.207C928.46 263.199 929.765 262.695 931.403 262.695C933.041 262.695 934.328 263.199 935.264 264.207C936.218 265.197 936.695 266.511 936.695 268.149V268.824H940.61V268.284C940.61 265.44 939.764 263.145 938.072 261.399C936.38 259.653 934.157 258.78 931.403 258.78C929.585 258.78 927.974 259.176 926.57 259.968C925.166 260.76 924.068 261.876 923.276 263.316C922.502 264.738 922.115 266.394 922.115 268.284V279.867C922.115 282.711 922.979 285.015 924.707 286.779C926.435 288.525 928.667 289.398 931.403 289.398ZM946.445 256.188H950.36V249.87H946.445V256.188ZM946.445 288.75H950.36V259.455H946.445V288.75ZM966.471 289.398C969.225 289.398 971.448 288.525 973.14 286.779C974.832 285.015 975.678 282.711 975.678 279.867V268.284C975.678 265.44 974.832 263.145 973.14 261.399C971.448 259.653 969.225 258.78 966.471 258.78C964.653 258.78 963.042 259.176 961.638 259.968C960.234 260.76 959.136 261.876 958.344 263.316C957.57 264.738 957.183 266.394 957.183 268.284V279.867C957.183 282.711 958.047 285.015 959.775 286.779C961.503 288.525 963.735 289.398 966.471 289.398ZM966.471 285.483C964.833 285.483 963.528 284.979 962.556 283.971C961.584 282.963 961.098 281.64 961.098 280.002V268.149C961.098 266.511 961.584 265.197 962.556 264.207C963.528 263.199 964.833 262.695 966.471 262.695C968.109 262.695 969.396 263.199 970.332 264.207C971.286 265.197 971.763 266.511 971.763 268.149V280.002C971.763 281.64 971.286 282.963 970.332 283.971C969.396 284.979 968.109 285.483 966.471 285.483ZM964.905 255.918H967.929L972.681 246.63H968.55L964.905 255.918ZM982.516 288.75H986.431V268.149C986.431 266.511 986.899 265.197 987.835 264.207C988.771 263.199 990.031 262.695 991.615 262.695C993.145 262.695 994.369 263.199 995.287 264.207C996.223 265.197 996.691 266.511 996.691 268.149V288.75H1000.61V268.149C1000.61 265.269 999.859 262.992 998.365 261.318C996.871 259.626 994.9 258.78 992.452 258.78C989.878 258.78 987.871 259.707 986.431 261.561V259.455H982.516V288.75ZM1027.64 298.632C1030.37 298.632 1032.6 297.75 1034.33 295.986C1036.06 294.24 1036.92 291.945 1036.92 289.101V259.455H1033.01V276.249C1033.01 277.887 1032.55 279.21 1031.63 280.218C1030.71 281.208 1029.43 281.703 1027.77 281.703C1026.1 281.703 1024.78 281.199 1023.83 280.191C1022.89 279.183 1022.43 277.86 1022.43 276.222V259.455H1018.51V276.222C1018.51 279.264 1019.33 281.595 1020.97 283.215C1022.61 284.817 1024.63 285.618 1027.04 285.618C1028.36 285.618 1029.51 285.393 1030.5 284.943C1031.49 284.475 1032.33 283.818 1033.01 282.972V289.209C1033.01 290.847 1032.52 292.17 1031.55 293.178C1030.58 294.204 1029.27 294.717 1027.64 294.717C1026 294.717 1024.7 294.204 1023.75 293.178C1022.81 292.17 1022.34 290.847 1022.34 289.209V288.372H1018.43V289.074C1018.43 291.936 1019.28 294.24 1020.97 295.986C1022.66 297.75 1024.88 298.632 1027.64 298.632ZM601.846 364.074H603.817V360.159H601.846C600.244 360.159 598.957 359.628 597.985 358.566C597.013 357.486 596.527 356.055 596.527 354.273V338.1H603.817V334.401H596.527V327.03H592.612V334.401H587.347V338.1H592.612V354.273C592.612 357.261 593.458 359.646 595.15 361.428C596.842 363.192 599.074 364.074 601.846 364.074ZM608.787 363.75H612.702V343.392C612.702 341.754 613.17 340.449 614.106 339.477C615.042 338.505 616.302 338.019 617.886 338.019H619.965V334.104H618.696C616.122 334.104 614.124 335.013 612.702 336.831V334.455H608.787V363.75ZM631.83 364.398C633.144 364.398 634.296 364.173 635.286 363.723C636.276 363.255 637.113 362.598 637.797 361.752V363.75H641.712V334.455H637.797V336.426C637.113 335.598 636.276 334.95 635.286 334.482C634.296 334.014 633.144 333.78 631.83 333.78C629.418 333.78 627.393 334.581 625.755 336.183C624.117 337.785 623.298 340.107 623.298 343.149V355.002C623.298 358.044 624.117 360.375 625.755 361.995C627.393 363.597 629.418 364.398 631.83 364.398ZM632.559 360.483C630.885 360.483 629.571 359.979 628.617 358.971C627.681 357.963 627.213 356.64 627.213 355.002V343.149C627.213 341.511 627.681 340.197 628.617 339.207C629.571 338.199 630.876 337.695 632.532 337.695C634.188 337.695 635.475 338.199 636.393 339.207C637.329 340.197 637.797 341.511 637.797 343.149V355.029C637.797 356.667 637.338 357.99 636.42 358.998C635.502 359.988 634.215 360.483 632.559 360.483ZM649.393 363.75H653.308V343.149C653.308 341.511 653.776 340.197 654.712 339.207C655.648 338.199 656.908 337.695 658.492 337.695C660.022 337.695 661.246 338.199 662.164 339.207C663.1 340.197 663.568 341.511 663.568 343.149V363.75H667.483V343.149C667.483 340.269 666.736 337.992 665.242 336.318C663.748 334.626 661.777 333.78 659.329 333.78C656.755 333.78 654.748 334.707 653.308 336.561V334.455H649.393V363.75ZM682.641 364.398C685.323 364.398 687.465 363.615 689.067 362.049C690.687 360.465 691.497 358.206 691.497 355.272C691.497 353.238 691.11 351.717 690.336 350.709C689.562 349.683 688.5 348.936 687.15 348.468C685.8 348 684.243 347.586 682.479 347.226C680.841 346.884 679.572 346.452 678.672 345.93C677.772 345.408 677.322 344.355 677.322 342.771C677.322 341.115 677.79 339.855 678.726 338.991C679.662 338.127 680.895 337.695 682.425 337.695C683.991 337.695 685.242 338.127 686.178 338.991C687.114 339.837 687.582 340.98 687.582 342.42V343.473H691.497V342.555C691.497 339.927 690.669 337.812 689.013 336.21C687.375 334.59 685.161 333.78 682.371 333.78C679.689 333.78 677.52 334.572 675.864 336.156C674.226 337.74 673.407 340.017 673.407 342.987C673.407 344.985 673.785 346.488 674.541 347.496C675.315 348.504 676.386 349.242 677.754 349.71C679.122 350.16 680.697 350.574 682.479 350.952C684.081 351.294 685.332 351.726 686.232 352.248C687.132 352.77 687.582 353.832 687.582 355.434C687.582 357.072 687.132 358.323 686.232 359.187C685.332 360.051 684.117 360.483 682.587 360.483C681.003 360.483 679.725 360.051 678.753 359.187C677.799 358.323 677.322 357.18 677.322 355.758V354.651H673.407V355.596C673.407 358.242 674.244 360.375 675.918 361.995C677.61 363.597 679.851 364.398 682.641 364.398ZM699.64 363.75H703.555V338.154H710.98V334.455H703.555V332.511C703.555 330.747 704.041 329.325 705.013 328.245C705.985 327.165 707.29 326.625 708.928 326.625H710.98V322.71H708.928C706.12 322.71 703.87 323.619 702.178 325.437C700.486 327.255 699.64 329.613 699.64 332.511V334.455H694.213V338.154H699.64V363.75ZM723.524 364.398C726.278 364.398 728.501 363.525 730.193 361.779C731.885 360.015 732.731 357.711 732.731 354.867V343.284C732.731 340.44 731.885 338.145 730.193 336.399C728.501 334.653 726.278 333.78 723.524 333.78C721.706 333.78 720.095 334.176 718.691 334.968C717.287 335.76 716.189 336.876 715.397 338.316C714.623 339.738 714.236 341.394 714.236 343.284V354.867C714.236 357.711 715.1 360.015 716.828 361.779C718.556 363.525 720.788 364.398 723.524 364.398ZM723.524 360.483C721.886 360.483 720.581 359.979 719.609 358.971C718.637 357.963 718.151 356.64 718.151 355.002V343.149C718.151 341.511 718.637 340.197 719.609 339.207C720.581 338.199 721.886 337.695 723.524 337.695C725.162 337.695 726.449 338.199 727.385 339.207C728.339 340.197 728.816 341.511 728.816 343.149V355.002C728.816 356.64 728.339 357.963 727.385 358.971C726.449 359.979 725.162 360.483 723.524 360.483ZM739.568 363.75H743.483V343.392C743.483 341.754 743.951 340.449 744.887 339.477C745.823 338.505 747.083 338.019 748.667 338.019H750.746V334.104H749.477C746.903 334.104 744.905 335.013 743.483 336.831V334.455H739.568V363.75ZM754.809 363.75H758.724V343.149C758.724 341.511 759.192 340.197 760.128 339.207C761.064 338.199 762.324 337.695 763.908 337.695C765.438 337.695 766.662 338.199 767.58 339.207C768.516 340.197 768.984 341.511 768.984 343.149V363.75H772.899V343.149C772.899 341.511 773.367 340.197 774.303 339.207C775.239 338.199 776.499 337.695 778.083 337.695C779.613 337.695 780.837 338.199 781.755 339.207C782.691 340.197 783.159 341.511 783.159 343.149V363.75H787.074V342.744C787.074 339.9 786.3 337.695 784.752 336.129C783.204 334.563 781.251 333.78 778.893 333.78C777.255 333.78 775.842 334.158 774.654 334.914C773.484 335.67 772.575 336.723 771.927 338.073C771.243 336.669 770.271 335.607 769.011 334.887C767.751 334.149 766.32 333.78 764.718 333.78C762.144 333.78 760.146 334.698 758.724 336.534V334.455H754.809V363.75ZM802.215 364.398C803.529 364.398 804.681 364.173 805.671 363.723C806.661 363.255 807.498 362.598 808.182 361.752V363.75H812.097V334.455H808.182V336.426C807.498 335.598 806.661 334.95 805.671 334.482C804.681 334.014 803.529 333.78 802.215 333.78C799.803 333.78 797.778 334.581 796.14 336.183C794.502 337.785 793.683 340.107 793.683 343.149V355.002C793.683 358.044 794.502 360.375 796.14 361.995C797.778 363.597 799.803 364.398 802.215 364.398ZM802.944 360.483C801.27 360.483 799.956 359.979 799.002 358.971C798.066 357.963 797.598 356.64 797.598 355.002V343.149C797.598 341.511 798.066 340.197 799.002 339.207C799.956 338.199 801.261 337.695 802.917 337.695C804.573 337.695 805.86 338.199 806.778 339.207C807.714 340.197 808.182 341.511 808.182 343.149V355.029C808.182 356.667 807.723 357.99 806.805 358.998C805.887 359.988 804.6 360.483 802.944 360.483ZM828.201 364.398C830.955 364.398 833.178 363.525 834.87 361.779C836.562 360.015 837.408 357.711 837.408 354.867V354.327H833.493V355.002C833.493 356.64 833.016 357.963 832.062 358.971C831.126 359.979 829.839 360.483 828.201 360.483C826.563 360.483 825.258 359.979 824.286 358.971C823.314 357.963 822.828 356.64 822.828 355.002V343.149C822.828 341.511 823.314 340.197 824.286 339.207C825.258 338.199 826.563 337.695 828.201 337.695C829.839 337.695 831.126 338.199 832.062 339.207C833.016 340.197 833.493 341.511 833.493 343.149V343.824H837.408V343.284C837.408 340.44 836.562 338.145 834.87 336.399C833.178 334.653 830.955 333.78 828.201 333.78C826.383 333.78 824.772 334.176 823.368 334.968C821.964 335.76 820.866 336.876 820.074 338.316C819.3 339.738 818.913 341.394 818.913 343.284V354.867C818.913 357.711 819.777 360.015 821.505 361.779C823.233 363.525 825.465 364.398 828.201 364.398ZM843.244 331.188H847.159V324.87H843.244V331.188ZM843.244 363.75H847.159V334.455H843.244V363.75ZM863.27 364.398C866.024 364.398 868.247 363.525 869.939 361.779C871.631 360.015 872.477 357.711 872.477 354.867V343.284C872.477 340.44 871.631 338.145 869.939 336.399C868.247 334.653 866.024 333.78 863.27 333.78C861.452 333.78 859.841 334.176 858.437 334.968C857.033 335.76 855.935 336.876 855.143 338.316C854.369 339.738 853.982 341.394 853.982 343.284V354.867C853.982 357.711 854.846 360.015 856.574 361.779C858.302 363.525 860.534 364.398 863.27 364.398ZM863.27 360.483C861.632 360.483 860.327 359.979 859.355 358.971C858.383 357.963 857.897 356.64 857.897 355.002V343.149C857.897 341.511 858.383 340.197 859.355 339.207C860.327 338.199 861.632 337.695 863.27 337.695C864.908 337.695 866.195 338.199 867.131 339.207C868.085 340.197 868.562 341.511 868.562 343.149V355.002C868.562 356.64 868.085 357.963 867.131 358.971C866.195 359.979 864.908 360.483 863.27 360.483ZM861.704 330.918H864.728L869.48 321.63H865.349L861.704 330.918ZM879.314 363.75H883.229V343.149C883.229 341.511 883.697 340.197 884.633 339.207C885.569 338.199 886.829 337.695 888.413 337.695C889.943 337.695 891.167 338.199 892.085 339.207C893.021 340.197 893.489 341.511 893.489 343.149V363.75H897.404V343.149C897.404 340.269 896.657 337.992 895.163 336.318C893.669 334.626 891.698 333.78 889.25 333.78C886.676 333.78 884.669 334.707 883.229 336.561V334.455H879.314V363.75ZM924.084 364.398C925.398 364.398 926.55 364.173 927.54 363.723C928.53 363.255 929.367 362.598 930.051 361.752V363.75H933.966V323.25H930.051V336.426C929.367 335.598 928.53 334.95 927.54 334.482C926.55 334.014 925.398 333.78 924.084 333.78C921.672 333.78 919.647 334.581 918.009 336.183C916.371 337.785 915.552 340.107 915.552 343.149V355.002C915.552 358.044 916.371 360.375 918.009 361.995C919.647 363.597 921.672 364.398 924.084 364.398ZM924.813 360.483C923.139 360.483 921.825 359.979 920.871 358.971C919.935 357.963 919.467 356.64 919.467 355.002V343.149C919.467 341.511 919.935 340.197 920.871 339.207C921.825 338.199 923.13 337.695 924.786 337.695C926.442 337.695 927.729 338.199 928.647 339.207C929.583 340.197 930.051 341.511 930.051 343.149V355.029C930.051 356.667 929.592 357.99 928.674 358.998C927.756 359.988 926.469 360.483 924.813 360.483ZM941.647 331.188H945.562V324.87H941.647V331.188ZM941.647 363.75H945.562V334.455H941.647V363.75ZM961.105 373.632C963.841 373.632 966.073 372.75 967.801 370.986C969.529 369.24 970.393 366.945 970.393 364.101V334.455H966.478V336.399C965.794 335.571 964.957 334.932 963.967 334.482C962.977 334.014 961.834 333.78 960.538 333.78C958.126 333.78 956.092 334.581 954.436 336.183C952.798 337.785 951.979 340.107 951.979 343.149V351.222C951.979 354.264 952.798 356.595 954.436 358.215C956.092 359.817 958.126 360.618 960.538 360.618C961.834 360.618 962.977 360.393 963.967 359.943C964.957 359.493 965.794 358.845 966.478 357.999V364.209C966.478 365.847 965.992 367.17 965.02 368.178C964.048 369.204 962.743 369.717 961.105 369.717C959.467 369.717 958.171 369.204 957.217 368.178C956.281 367.17 955.813 365.847 955.813 364.209V363.372H951.898V364.074C951.898 366.936 952.744 369.24 954.436 370.986C956.146 372.75 958.369 373.632 961.105 373.632ZM961.24 356.703C959.566 356.703 958.252 356.199 957.298 355.191C956.362 354.183 955.894 352.86 955.894 351.222V343.149C955.894 341.511 956.362 340.197 957.298 339.207C958.252 338.199 959.566 337.695 961.24 337.695C962.896 337.695 964.183 338.199 965.101 339.207C966.019 340.197 966.478 341.511 966.478 343.149V351.249C966.478 352.887 966.019 354.21 965.101 355.218C964.183 356.208 962.896 356.703 961.24 356.703ZM978.086 331.188H982.001V324.87H978.086V331.188ZM978.086 363.75H982.001V334.455H978.086V363.75ZM1000.68 364.074H1002.65V360.159H1000.68C999.075 360.159 997.788 359.628 996.816 358.566C995.844 357.486 995.358 356.055 995.358 354.273V338.1H1002.65V334.401H995.358V327.03H991.443V334.401H986.178V338.1H991.443V354.273C991.443 357.261 992.289 359.646 993.981 361.428C995.673 363.192 997.905 364.074 1000.68 364.074ZM1015.42 364.398C1016.73 364.398 1017.89 364.173 1018.88 363.723C1019.87 363.255 1020.7 362.598 1021.39 361.752V363.75H1025.3V334.455H1021.39V336.426C1020.7 335.598 1019.87 334.95 1018.88 334.482C1017.89 334.014 1016.73 333.78 1015.42 333.78C1013.01 333.78 1010.98 334.581 1009.35 336.183C1007.71 337.785 1006.89 340.107 1006.89 343.149V355.002C1006.89 358.044 1007.71 360.375 1009.35 361.995C1010.98 363.597 1013.01 364.398 1015.42 364.398ZM1016.15 360.483C1014.48 360.483 1013.16 359.979 1012.21 358.971C1011.27 357.963 1010.8 356.64 1010.8 355.002V343.149C1010.8 341.511 1011.27 340.197 1012.21 339.207C1013.16 338.199 1014.47 337.695 1016.12 337.695C1017.78 337.695 1019.07 338.199 1019.98 339.207C1020.92 340.197 1021.39 341.511 1021.39 343.149V355.029C1021.39 356.667 1020.93 357.99 1020.01 358.998C1019.09 359.988 1017.81 360.483 1016.15 360.483ZM1032.98 363.75H1036.9V323.25H1032.98V363.75Z" fill="#454545"/>
</svg>
